<?xml version="1.0" encoding="utf-8"?>
<!-- Generator: Adobe Illustrator 26.5.0, SVG Export Plug-In . SVG Version: 6.00 Build 0)  -->
<svg version="1.1" id="Layer_1" xmlns="http://www.w3.org/2000/svg" xmlns:xlink="http://www.w3.org/1999/xlink" x="0px" y="0px"
	 viewBox="0 0 512 512" style="enable-background:new 0 0 512 512;" xml:space="preserve">
<style type="text/css">
	.st0{fill:#EB3C00;}
</style>
<g transform="translate(-216.07358,-549.28882)">
	<g transform="matrix(1.8232952,0,0,1.8232952,-597.71681,-124.12247)">
		<g transform="translate(0,-91.137241)">
			<g transform="matrix(0.74069815,0,0,0.74069815,98.5698,-8.2505871)">
				<path id="XMLID_9_" class="st0" d="M469.49,859.37v-73.33l64.89-23.94l35.28,11.35v98.79l-35.28,10.65L469.49,859.37l64.89,7.75
					v-85.37l-42.34,9.82v57.84L469.49,859.37z"/>
				<path class="st0" d="M638.84,859.92c-10.24,0-18.4-3.32-24.49-10.1c-6.09-6.78-9.27-15.5-9.27-26.29
					c0-11.62,3.18-20.89,9.41-27.67c6.23-6.92,14.8-10.38,25.6-10.38c9.96,0,17.99,3.32,24.08,10.1c6.09,6.64,9.13,15.5,9.13,26.29
					c0,11.76-3.18,21.03-9.41,27.95C657.66,856.46,649.22,859.92,638.84,859.92L638.84,859.92z M639.4,793.09
					c-7.61,0-13.7,2.77-18.4,8.16c-4.7,5.4-7.06,12.59-7.06,21.45s2.35,16.05,6.92,21.45c4.57,5.4,10.65,8.16,17.99,8.16
					c7.89,0,14.11-2.63,18.68-7.75c4.57-5.12,6.78-12.31,6.78-21.72c0-9.55-2.21-16.88-6.64-22
					C653.37,795.58,647.14,793.09,639.4,793.09L639.4,793.09z"/>
				<path id="XMLID_6_" class="st0" d="M703.18,781.33c-4.7,0-8.58,1.52-11.62,4.7c-3.18,3.18-4.7,7.33-4.7,12.73v8.3h-8.72v7.06
					h8.72v44.41h8.16v-44.41h20.06v44.41h8.16v-44.41h12.04v-6.92h-12.04v-7.89c0-7.33,2.91-10.93,8.58-10.93
					c2.08,0,3.87,0.42,5.53,1.38v-7.47c-1.52-0.55-3.46-0.97-5.95-0.97c-4.7,0-8.58,1.52-11.62,4.7c-3.18,3.18-4.7,7.33-4.7,12.73
					v8.3h-20.06v-7.89c0-7.33,2.91-10.93,8.58-10.93c2.08,0,3.87,0.42,5.53,1.38v-7.33C707.75,781.74,705.67,781.33,703.18,781.33
					L703.18,781.33z"/>
				<path class="st0" d="M747.46,794.06c-1.52,0-2.77-0.55-3.74-1.52c-1.11-0.97-1.52-2.21-1.52-3.87c0-1.52,0.55-2.77,1.52-3.87
					c1.11-0.97,2.35-1.52,3.74-1.52c1.52,0,2.77,0.55,3.87,1.52c1.11,0.97,1.52,2.35,1.52,3.87s-0.55,2.77-1.52,3.74
					C750.22,793.64,748.84,794.06,747.46,794.06L747.46,794.06z M751.47,858.68h-8.3V807.2h8.3V858.68z"/>
				<path id="XMLID_5_" class="st0" d="M798.24,856.32c-4.01,2.35-8.58,3.6-14.11,3.6c-7.33,0-13.28-2.35-17.71-7.19
					c-4.57-4.7-6.78-10.93-6.78-18.54c0-8.44,2.49-15.22,7.33-20.48c4.84-5.12,11.35-7.75,19.51-7.75c4.57,0,8.44,0.83,11.9,2.49
					v8.44c-3.87-2.63-7.89-4.01-12.31-4.01c-5.26,0-9.55,1.94-13.01,5.67c-3.32,3.74-4.98,8.72-4.98,14.8
					c0,6.09,1.52,10.79,4.7,14.25c3.18,3.46,7.47,5.26,12.73,5.26c4.43,0,8.72-1.52,12.73-4.43L798.24,856.32z"/>
				<path class="st0" d="M848.6,835.01h-36.39c0.14,5.67,1.66,10.1,4.57,13.28c2.91,3.18,7.06,4.7,12.18,4.7
					c5.81,0,11.07-1.94,15.91-5.67v7.75c-4.57,3.32-10.52,4.98-17.99,4.98c-7.33,0-13.01-2.35-17.16-7.06
					c-4.15-4.7-6.23-11.21-6.23-19.79c0-8.03,2.21-14.53,6.78-19.51c4.57-4.98,10.24-7.61,16.88-7.61s11.9,2.21,15.64,6.5
					c3.74,4.29,5.53,10.38,5.53,18.13L848.6,835.01z M840.16,827.96c0-4.7-1.25-8.44-3.46-11.07c-2.21-2.63-5.4-4.01-9.41-4.01
					c-3.87,0-7.19,1.38-9.96,4.15c-2.77,2.77-4.43,6.36-4.98,10.93H840.16z"/>
			</g>
		</g>
	</g>
</g>
</svg>
